<mxfile host="app.diagrams.net" agent="Mozilla/5.0 (Windows NT 10.0; Win64; x64) AppleWebKit/537.36 (KHTML, like Gecko) Chrome/130.0.6723.92 Safari/537.36" version="24.8.3">
  <diagram name="Seite-1" id="oJwmOva_RkN-0TxP1Ae1">
    <mxGraphModel dx="1434" dy="866" grid="1" gridSize="10" guides="1" tooltips="1" connect="1" arrows="1" fold="1" page="1" pageScale="1" pageWidth="827" pageHeight="1169" math="0" shadow="0">
      <root>
        <mxCell id="0" />
        <mxCell id="1" parent="0" />
        <mxCell id="TTC1ai_KlTjNhs4RFqy6-1" value="Requirements identification" style="swimlane;whiteSpace=wrap;html=1;startSize=20;" parent="1" vertex="1">
          <mxGeometry x="160" y="270" width="410" height="310" as="geometry" />
        </mxCell>
        <mxCell id="TTC1ai_KlTjNhs4RFqy6-3" value="Business &lt;br&gt;Requirements &lt;br&gt;Survey" style="ellipse;shape=cloud;whiteSpace=wrap;html=1;" parent="TTC1ai_KlTjNhs4RFqy6-1" vertex="1">
          <mxGeometry y="20" width="140" height="80" as="geometry" />
        </mxCell>
        <mxCell id="TTC1ai_KlTjNhs4RFqy6-6" value="&lt;div&gt;&lt;br&gt;&lt;/div&gt;&lt;div&gt;Industry&lt;/div&gt;Standards" style="shape=note;whiteSpace=wrap;html=1;backgroundOutline=1;darkOpacity=0.05;" parent="TTC1ai_KlTjNhs4RFqy6-1" vertex="1">
          <mxGeometry x="35" y="100" width="70" height="90" as="geometry" />
        </mxCell>
        <mxCell id="TTC1ai_KlTjNhs4RFqy6-7" value="&lt;div&gt;&lt;br&gt;&lt;/div&gt;&lt;div&gt;Avionics&lt;/div&gt;Standards" style="shape=note;whiteSpace=wrap;html=1;backgroundOutline=1;darkOpacity=0.05;" parent="TTC1ai_KlTjNhs4RFqy6-1" vertex="1">
          <mxGeometry x="35" y="200" width="70" height="90" as="geometry" />
        </mxCell>
        <mxCell id="TTC1ai_KlTjNhs4RFqy6-22" style="edgeStyle=orthogonalEdgeStyle;rounded=0;orthogonalLoop=1;jettySize=auto;html=1;entryX=0;entryY=0.5;entryDx=0;entryDy=0;" parent="1" source="TTC1ai_KlTjNhs4RFqy6-8" target="TTC1ai_KlTjNhs4RFqy6-18" edge="1">
          <mxGeometry relative="1" as="geometry" />
        </mxCell>
        <mxCell id="TTC1ai_KlTjNhs4RFqy6-8" value="&lt;font style=&quot;font-size: 20px;&quot;&gt;Requirements&lt;/font&gt;" style="rounded=0;whiteSpace=wrap;html=1;" parent="1" vertex="1">
          <mxGeometry x="380" y="310" width="160" height="230" as="geometry" />
        </mxCell>
        <mxCell id="TTC1ai_KlTjNhs4RFqy6-9" style="edgeStyle=orthogonalEdgeStyle;rounded=0;orthogonalLoop=1;jettySize=auto;html=1;entryX=0;entryY=0.087;entryDx=0;entryDy=0;entryPerimeter=0;exitX=0.875;exitY=0.5;exitDx=0;exitDy=0;exitPerimeter=0;" parent="1" source="TTC1ai_KlTjNhs4RFqy6-3" target="TTC1ai_KlTjNhs4RFqy6-8" edge="1">
          <mxGeometry relative="1" as="geometry" />
        </mxCell>
        <mxCell id="TTC1ai_KlTjNhs4RFqy6-10" style="edgeStyle=orthogonalEdgeStyle;rounded=0;orthogonalLoop=1;jettySize=auto;html=1;entryX=0;entryY=0.454;entryDx=0;entryDy=0;entryPerimeter=0;" parent="1" source="TTC1ai_KlTjNhs4RFqy6-6" target="TTC1ai_KlTjNhs4RFqy6-8" edge="1">
          <mxGeometry relative="1" as="geometry">
            <mxPoint x="370" y="415" as="targetPoint" />
          </mxGeometry>
        </mxCell>
        <mxCell id="TTC1ai_KlTjNhs4RFqy6-11" style="edgeStyle=orthogonalEdgeStyle;rounded=0;orthogonalLoop=1;jettySize=auto;html=1;entryX=0.002;entryY=0.891;entryDx=0;entryDy=0;entryPerimeter=0;" parent="1" source="TTC1ai_KlTjNhs4RFqy6-7" target="TTC1ai_KlTjNhs4RFqy6-8" edge="1">
          <mxGeometry relative="1" as="geometry" />
        </mxCell>
        <mxCell id="TTC1ai_KlTjNhs4RFqy6-12" value="Assessment" style="swimlane;whiteSpace=wrap;html=1;startSize=20;" parent="1" vertex="1">
          <mxGeometry x="630" y="270" width="410" height="310" as="geometry" />
        </mxCell>
        <mxCell id="TTC1ai_KlTjNhs4RFqy6-13" value="Best&lt;div&gt;Practices&lt;/div&gt;" style="ellipse;shape=cloud;whiteSpace=wrap;html=1;" parent="TTC1ai_KlTjNhs4RFqy6-12" vertex="1">
          <mxGeometry x="270" y="60" width="140" height="80" as="geometry" />
        </mxCell>
        <mxCell id="TTC1ai_KlTjNhs4RFqy6-14" value="&lt;div&gt;&lt;br&gt;&lt;/div&gt;Examples" style="shape=note;whiteSpace=wrap;html=1;backgroundOutline=1;darkOpacity=0.05;" parent="TTC1ai_KlTjNhs4RFqy6-12" vertex="1">
          <mxGeometry x="304.68" y="160" width="70" height="90" as="geometry" />
        </mxCell>
        <mxCell id="TTC1ai_KlTjNhs4RFqy6-18" value="&lt;font style=&quot;font-size: 20px;&quot;&gt;Assessed&lt;/font&gt;&lt;div&gt;&lt;span style=&quot;font-size: 20px; background-color: initial;&quot;&gt;Requirements&lt;/span&gt;&lt;div&gt;&lt;div&gt;&lt;font style=&quot;font-size: 20px;&quot;&gt;Table&lt;/font&gt;&lt;/div&gt;&lt;/div&gt;&lt;/div&gt;" style="shape=internalStorage;whiteSpace=wrap;html=1;dx=15;dy=15;rounded=1;arcSize=4;strokeWidth=2;" parent="TTC1ai_KlTjNhs4RFqy6-12" vertex="1">
          <mxGeometry x="30" y="40" width="160" height="230" as="geometry" />
        </mxCell>
        <mxCell id="TTC1ai_KlTjNhs4RFqy6-19" style="edgeStyle=orthogonalEdgeStyle;rounded=0;orthogonalLoop=1;jettySize=auto;html=1;entryX=1;entryY=0.087;entryDx=0;entryDy=0;entryPerimeter=0;exitX=0.084;exitY=0.498;exitDx=0;exitDy=0;exitPerimeter=0;" parent="TTC1ai_KlTjNhs4RFqy6-12" source="TTC1ai_KlTjNhs4RFqy6-13" edge="1">
          <mxGeometry relative="1" as="geometry">
            <mxPoint x="190" y="100.00999999999999" as="targetPoint" />
          </mxGeometry>
        </mxCell>
        <mxCell id="TTC1ai_KlTjNhs4RFqy6-20" style="edgeStyle=orthogonalEdgeStyle;rounded=0;orthogonalLoop=1;jettySize=auto;html=1;entryX=1.002;entryY=0.453;entryDx=0;entryDy=0;entryPerimeter=0;" parent="TTC1ai_KlTjNhs4RFqy6-12" source="TTC1ai_KlTjNhs4RFqy6-14" edge="1">
          <mxGeometry relative="1" as="geometry">
            <mxPoint x="190.00000000000017" y="204.19000000000005" as="targetPoint" />
          </mxGeometry>
        </mxCell>
        <mxCell id="TTC1ai_KlTjNhs4RFqy6-37" style="edgeStyle=orthogonalEdgeStyle;rounded=0;orthogonalLoop=1;jettySize=auto;html=1;entryX=0;entryY=0.582;entryDx=0;entryDy=0;entryPerimeter=0;" parent="1" source="TTC1ai_KlTjNhs4RFqy6-18" target="TTC1ai_KlTjNhs4RFqy6-32" edge="1">
          <mxGeometry relative="1" as="geometry" />
        </mxCell>
        <mxCell id="TTC1ai_KlTjNhs4RFqy6-47" value="" style="group;" parent="1" vertex="1" connectable="0">
          <mxGeometry x="160" y="640" width="410" height="310" as="geometry" />
        </mxCell>
        <mxCell id="TTC1ai_KlTjNhs4RFqy6-45" value="" style="rounded=0;whiteSpace=wrap;html=1;fillColor=none;" parent="TTC1ai_KlTjNhs4RFqy6-47" vertex="1">
          <mxGeometry width="410" height="310" as="geometry" />
        </mxCell>
        <mxCell id="TTC1ai_KlTjNhs4RFqy6-46" value="&lt;span style=&quot;font-weight: 700;&quot;&gt;Proof of concept&lt;/span&gt;" style="rounded=0;whiteSpace=wrap;html=1;" parent="TTC1ai_KlTjNhs4RFqy6-47" vertex="1">
          <mxGeometry y="290" width="410" height="20" as="geometry" />
        </mxCell>
        <mxCell id="TTC1ai_KlTjNhs4RFqy6-39" value="&lt;div style=&quot;font-size: 20px;&quot;&gt;&lt;font style=&quot;font-size: 20px;&quot;&gt;&lt;br&gt;&lt;/font&gt;&lt;/div&gt;&lt;div style=&quot;font-size: 20px;&quot;&gt;&lt;span style=&quot;background-color: initial;&quot;&gt;&lt;br&gt;&lt;/span&gt;&lt;/div&gt;&lt;div style=&quot;font-size: 20px;&quot;&gt;SOA Avionic Software&lt;/div&gt;" style="verticalAlign=top;align=center;spacingTop=8;spacingLeft=2;spacingRight=12;shape=cube;size=10;direction=south;fontStyle=4;html=1;whiteSpace=wrap;" parent="TTC1ai_KlTjNhs4RFqy6-47" vertex="1">
          <mxGeometry x="170" y="40" width="190" height="200" as="geometry" />
        </mxCell>
        <mxCell id="TTC1ai_KlTjNhs4RFqy6-40" value="&lt;div&gt;&lt;br&gt;&lt;/div&gt;Existing Monolithic Avionic Software" style="shape=note;whiteSpace=wrap;html=1;backgroundOutline=1;darkOpacity=0.05;" parent="TTC1ai_KlTjNhs4RFqy6-47" vertex="1">
          <mxGeometry x="40" y="85" width="80" height="110" as="geometry" />
        </mxCell>
        <mxCell id="TTC1ai_KlTjNhs4RFqy6-41" style="edgeStyle=orthogonalEdgeStyle;rounded=0;orthogonalLoop=1;jettySize=auto;html=1;entryX=0.498;entryY=0.991;entryDx=0;entryDy=0;entryPerimeter=0;" parent="TTC1ai_KlTjNhs4RFqy6-47" source="TTC1ai_KlTjNhs4RFqy6-40" target="TTC1ai_KlTjNhs4RFqy6-39" edge="1">
          <mxGeometry relative="1" as="geometry" />
        </mxCell>
        <mxCell id="TTC1ai_KlTjNhs4RFqy6-42" style="edgeStyle=orthogonalEdgeStyle;rounded=0;orthogonalLoop=1;jettySize=auto;html=1;entryX=0.503;entryY=-0.018;entryDx=0;entryDy=0;entryPerimeter=0;" parent="1" source="TTC1ai_KlTjNhs4RFqy6-32" target="TTC1ai_KlTjNhs4RFqy6-39" edge="1">
          <mxGeometry relative="1" as="geometry" />
        </mxCell>
        <mxCell id="TTC1ai_KlTjNhs4RFqy6-48" value="" style="group;" parent="1" vertex="1" connectable="0">
          <mxGeometry x="630" y="640" width="410" height="310" as="geometry" />
        </mxCell>
        <mxCell id="TTC1ai_KlTjNhs4RFqy6-49" value="" style="rounded=0;whiteSpace=wrap;html=1;fillColor=none;" parent="TTC1ai_KlTjNhs4RFqy6-48" vertex="1">
          <mxGeometry width="410" height="310" as="geometry" />
        </mxCell>
        <mxCell id="TTC1ai_KlTjNhs4RFqy6-50" value="&lt;span style=&quot;font-weight: 700;&quot;&gt;Architecture Design&lt;/span&gt;" style="rounded=0;whiteSpace=wrap;html=1;" parent="TTC1ai_KlTjNhs4RFqy6-48" vertex="1">
          <mxGeometry y="290" width="410" height="20" as="geometry" />
        </mxCell>
        <mxCell id="TTC1ai_KlTjNhs4RFqy6-53" style="edgeStyle=orthogonalEdgeStyle;rounded=0;orthogonalLoop=1;jettySize=auto;html=1;entryX=0.498;entryY=0.991;entryDx=0;entryDy=0;entryPerimeter=0;" parent="TTC1ai_KlTjNhs4RFqy6-48" edge="1">
          <mxGeometry relative="1" as="geometry">
            <mxPoint x="171.7099999999998" y="139.60000000000014" as="targetPoint" />
          </mxGeometry>
        </mxCell>
        <mxCell id="TTC1ai_KlTjNhs4RFqy6-32" value="&lt;div style=&quot;font-size: 20px;&quot;&gt;&lt;font style=&quot;font-size: 20px;&quot;&gt;&lt;br&gt;&lt;/font&gt;&lt;/div&gt;&lt;div style=&quot;font-size: 20px;&quot;&gt;&lt;span style=&quot;background-color: initial;&quot;&gt;&lt;br&gt;&lt;/span&gt;&lt;/div&gt;&lt;div style=&quot;font-size: 20px;&quot;&gt;&lt;span style=&quot;background-color: initial;&quot;&gt;Architecture&lt;/span&gt;&lt;/div&gt;&lt;div style=&quot;font-size: 20px;&quot;&gt;&lt;span style=&quot;background-color: initial;&quot;&gt;Model&lt;/span&gt;&lt;/div&gt;" style="verticalAlign=top;align=center;spacingTop=8;spacingLeft=2;spacingRight=12;shape=cube;size=10;direction=south;fontStyle=4;html=1;whiteSpace=wrap;" parent="TTC1ai_KlTjNhs4RFqy6-48" vertex="1">
          <mxGeometry x="30" y="40" width="190" height="200" as="geometry" />
        </mxCell>
        <mxCell id="TTC1ai_KlTjNhs4RFqy6-35" value="" style="endArrow=classic;html=1;rounded=0;edgeStyle=orthogonalEdgeStyle;shape=flexArrow;fillColor=default;" parent="TTC1ai_KlTjNhs4RFqy6-48" edge="1">
          <mxGeometry width="50" height="50" relative="1" as="geometry">
            <mxPoint x="221" y="200" as="sourcePoint" />
            <mxPoint x="221" y="80" as="targetPoint" />
            <Array as="points">
              <mxPoint x="360" y="200" />
              <mxPoint x="360" y="80" />
              <mxPoint x="221" y="80" />
            </Array>
          </mxGeometry>
        </mxCell>
        <mxCell id="TTC1ai_KlTjNhs4RFqy6-36" value="Iterated Refinement&lt;div&gt;&amp;amp; Assessment&lt;/div&gt;" style="edgeLabel;html=1;align=center;verticalAlign=middle;resizable=0;points=[];" parent="TTC1ai_KlTjNhs4RFqy6-35" vertex="1" connectable="0">
          <mxGeometry x="0.0761" relative="1" as="geometry">
            <mxPoint x="-60" y="15" as="offset" />
          </mxGeometry>
        </mxCell>
      </root>
    </mxGraphModel>
  </diagram>
</mxfile>
